<?xml version="1.0" encoding="UTF-8"?>
<svg version="1.1" xmlns="http://www.w3.org/2000/svg" width="512" height="512">
<path d="M0 0 C1.01790619 0.00215515 2.03581238 0.0043103 3.08456421 0.00653076 C17.69363523 0.05620146 32.02575853 0.30709809 46.375 3.3125 C47.34985352 3.51117676 48.32470703 3.70985352 49.32910156 3.91455078 C97.7109774 14.03517194 141.69928269 35.9516877 177.375 70.3125 C178.3640332 71.26068604 178.3640332 71.26068604 179.37304688 72.22802734 C188.86130305 81.37247479 197.6012044 90.66984009 205.375 101.3125 C206.23306152 102.46355017 207.09113451 103.61459177 207.94921875 104.765625 C213.98736829 112.95680614 219.34595521 121.47054105 224.375 130.3125 C224.73948242 130.94430176 225.10396484 131.57610352 225.47949219 132.22705078 C247.08534998 169.97532572 256.85198095 212.74189997 256.6875 255.9375 C256.68534485 256.95540619 256.6831897 257.97331238 256.68096924 259.02206421 C256.63129854 273.63113523 256.38040191 287.96325853 253.375 302.3125 C253.07698486 303.77478027 253.07698486 303.77478027 252.77294922 305.26660156 C242.65232806 353.6484774 220.7358123 397.63678269 186.375 433.3125 C185.74287598 433.97185547 185.11075195 434.63121094 184.45947266 435.31054688 C175.31502521 444.79880305 166.01765991 453.5387044 155.375 461.3125 C154.22394983 462.17056152 153.07290823 463.02863451 151.921875 463.88671875 C143.73224019 469.92427396 135.22961724 475.30707302 126.375 480.3125 C125.66778809 480.7146875 124.96057617 481.116875 124.23193359 481.53125 C101.09654164 494.5566741 75.92537591 503.30551461 49.9375 508.625 C49.21860596 508.77235596 48.49971191 508.91971191 47.7590332 509.0715332 C33.08339502 511.86090125 18.55831162 512.66142619 3.64770508 512.62817383 C0.70811513 512.6250221 -2.2304558 512.64854926 -5.16992188 512.67382812 C-18.54306192 512.71848737 -31.43916711 511.51301542 -44.625 509.3125 C-46.33055054 509.03031616 -46.33055054 509.03031616 -48.07055664 508.74243164 C-91.33802759 500.97044532 -132.38793216 480.98345309 -165.625 452.3125 C-166.37007813 451.67828125 -167.11515625 451.0440625 -167.8828125 450.390625 C-181.38779833 438.57948485 -194.05918743 425.82889772 -204.625 411.3125 C-205.48149066 410.16255169 -206.33826433 409.01281411 -207.1953125 407.86328125 C-213.23534209 399.67315742 -218.61867614 391.16870382 -223.625 382.3125 C-224.0271875 381.60528809 -224.429375 380.89807617 -224.84375 380.16943359 C-237.8691741 357.03404164 -246.61801461 331.86287591 -251.9375 305.875 C-252.08485596 305.15610596 -252.23221191 304.43721191 -252.3840332 303.6965332 C-255.35789088 288.05024391 -255.99800362 272.57681954 -255.9375 256.6875 C-255.93534485 255.66959381 -255.9331897 254.65168762 -255.93096924 253.60293579 C-255.88129854 238.99386477 -255.63040191 224.66174147 -252.625 210.3125 C-252.42632324 209.33764648 -252.22764648 208.36279297 -252.02294922 207.35839844 C-241.90232806 158.9765226 -219.9858123 114.98821731 -185.625 79.3125 C-184.99287598 78.65314453 -184.36075195 77.99378906 -183.70947266 77.31445312 C-174.56502521 67.82619695 -165.26765991 59.0862956 -154.625 51.3125 C-153.47394983 50.45443848 -152.32290823 49.59636549 -151.171875 48.73828125 C-142.98224019 42.70072604 -134.47961724 37.31792698 -125.625 32.3125 C-124.91778809 31.9103125 -124.21057617 31.508125 -123.48193359 31.09375 C-100.34654164 18.0683259 -75.17537591 9.31948539 -49.1875 4 C-48.46860596 3.85264404 -47.74971191 3.70528809 -47.0090332 3.5534668 C-31.36274391 0.57960912 -15.88931954 -0.06050362 0 0 Z " fill="#FFC107" transform="translate(255.625,-0.3125)"/>
<path d="M0 0 C7.06013001 4.84123201 10.4695395 11.36315608 14.5 18.75 C15.19760879 20.00329347 15.89677491 21.25572123 16.59741211 22.50732422 C18.03610151 25.07919291 19.46894075 27.65418634 20.89794922 30.23144531 C24.05075034 35.90210719 27.30845497 41.51203004 30.5625 47.125 C31.80366743 49.27327459 33.04455274 51.4217122 34.28515625 53.5703125 C34.89762207 54.63024414 35.51008789 55.69017578 36.14111328 56.78222656 C39.26324605 62.18670645 42.38141204 67.59347412 45.5 73 C46.74998122 75.1666775 47.99998121 77.33334417 49.25 79.5 C56.75 92.49999999 56.75 92.49999999 58.62597656 95.75170898 C59.87270256 97.91268988 61.11944727 100.07365998 62.36621094 102.23461914 C65.54145883 107.73818851 68.71635495 113.24196032 71.890625 118.74609375 C79.24876951 131.50415943 86.61534981 144.25725643 94 157 C96.71667642 153.7301442 99.01262063 150.46915083 101.109375 146.7734375 C101.69074219 145.75572266 102.27210938 144.73800781 102.87109375 143.68945312 C103.49113281 142.59568359 104.11117187 141.50191406 104.75 140.375 C106.09619816 138.01664541 107.446189 135.66047413 108.796875 133.3046875 C109.14310913 132.7002179 109.48934326 132.09574829 109.84606934 131.47296143 C113.49792648 125.10937731 117.24537582 118.80339038 121 112.5 C126.23362433 103.70421636 131.40234948 94.87527784 136.5 86 C142.24765544 75.99302937 148.10003642 66.05289002 154.00195312 56.13623047 C158.73529137 48.1698325 163.38432453 40.15988729 168 32.125 C169.80779268 28.98871481 171.61729439 25.85343173 173.42871094 22.71923828 C174.40261963 21.03381332 175.37493769 19.34746683 176.34472656 17.65966797 C177.42573116 15.78625076 178.52127174 13.92258749 179.625 12.0625 C180.17414063 11.12535156 180.72328125 10.18820313 181.2890625 9.22265625 C183.27674183 6.64048835 185.07528412 5.40988644 188 4 C193.31685013 3.41997999 196.43317432 4.3129387 201 7 C218.10563743 25.04896303 220.00325788 49.73029565 219.3828125 73.25390625 C218.49915728 95.82045988 213.30227804 118.84336905 203 139 C202.39478804 140.28213784 201.79342419 141.56609707 201.1953125 142.8515625 C196.71909179 152.33914222 191.41723348 160.70974315 185 169 C184.43925781 169.74636719 183.87851562 170.49273437 183.30078125 171.26171875 C172.11406979 185.15352921 154.66295376 195.60113178 137 198 C130.66538868 198.40955482 124.33814642 198.2456117 118 198 C123.9257971 208.71014968 129.89405417 219.39134551 136 230 C141.45196084 229.27107483 145.27701226 226.56176388 149.8671875 223.69140625 C159.11705168 218.69740227 170.85408358 218.55063569 181.04296875 220.6171875 C192.37531263 224.68890406 199.29294865 232.84552917 204.95849609 243.12158203 C206.08778736 245.15833003 207.25403342 247.17099339 208.42578125 249.18359375 C209.24341843 250.60085307 210.05984479 252.01881169 210.875 253.4375 C211.25664307 254.09943359 211.63828613 254.76136719 212.03149414 255.44335938 C217.67002725 265.45502059 218.85112166 276.13970049 215.875 287.375 C212.41427512 297.05221217 205.58491735 305.60955148 196.375 310.3515625 C186.17272269 314.57214746 175.24729257 316.03695485 164.75 311.9375 C150.4790305 305.21621225 144.63054757 294.32641986 137.0625 281.0625 C136.07112539 279.33476359 135.07974615 277.60702982 134.08808899 275.87945557 C133.065892 274.09776381 132.04502131 272.31531765 131.02441406 270.53271484 C127.84035341 264.97347687 124.63887757 259.42427802 121.4375 253.875 C120.82414795 252.81104004 120.2107959 251.74708008 119.57885742 250.65087891 C114.63543765 242.0826314 109.65626143 233.535521 104.65405273 225.00146484 C101.36121939 219.37421528 98.13738025 213.71545773 95 208 C92.37670139 210.37568885 90.76594369 212.89054253 89.0234375 215.9609375 C88.44392334 216.97494629 87.86440918 217.98895508 87.26733398 219.03369141 C86.64286377 220.13632324 86.01839355 221.23895508 85.375 222.375 C84.02184404 224.7461161 82.66506889 227.11515659 81.30859375 229.484375 C80.95722855 230.09910675 80.60586334 230.7138385 80.24385071 231.34719849 C76.35947872 238.13643823 72.40157568 244.88208707 68.4375 251.625 C67.01014489 254.05322583 65.58298773 256.48156761 64.15625 258.91015625 C63.80788589 259.50306961 63.45952179 260.09598297 63.1006012 260.7068634 C60.7500897 264.71139156 58.41759455 268.726008 56.09375 272.74609375 C52.75867052 278.51501014 49.40052744 284.26939609 46 290 C45.59458984 290.68449219 45.18917969 291.36898438 44.77148438 292.07421875 C38.35055635 302.77196384 31.02654177 309.2964623 19 313 C8.22207625 315.55401037 -2.17808736 314.1984393 -11.625 308.375 C-19.8256501 302.48214347 -25.04717261 295.65924892 -28 286 C-28.18949219 285.38769531 -28.37898437 284.77539062 -28.57421875 284.14453125 C-32.32224717 265.26684683 -22.02656837 250.08754945 -12 235 C-5.42523664 225.92810274 4.04455167 220.80989132 15 219 C26.57934698 217.33780342 37.56524739 222.56034154 47.01171875 228.86328125 C49.05235541 230.2481613 49.05235541 230.2481613 52 230 C53.46070503 227.9645945 54.68634751 226.00720888 55.90625 223.83203125 C56.2722229 223.20020432 56.6381958 222.56837738 57.01525879 221.91740417 C58.18743572 219.88832516 59.34386163 217.85075225 60.5 215.8125 C61.27891334 214.45708723 62.05884939 213.10226162 62.83984375 211.74804688 C64.28183872 209.24556139 65.71716248 206.7394787 67.14648438 204.22973633 C68.73266883 201.46582245 70.34887204 198.72545247 72 196 C71.04130005 196.02356567 71.04130005 196.02356567 70.06323242 196.04760742 C67.10474877 196.1108263 64.14640796 196.1492618 61.1875 196.1875 C60.18267578 196.21263672 59.17785156 196.23777344 58.14257812 196.26367188 C39.39893914 196.44447868 22.77143622 187.52729145 9.59326172 174.63720703 C-21.44329668 142.74459891 -31.76471908 96.35743531 -31.28125 53.3359375 C-31.12204868 44.38188758 -30.01757945 36.45119474 -27 28 C-26.62617188 26.90558594 -26.25234375 25.81117188 -25.8671875 24.68359375 C-21.96724104 14.36552348 -13.51420613 -3.42577902 0 0 Z " fill="#FFFEFC" transform="translate(162,109)"/>
<path d="M0 0 C2.86477513 3.42857477 5.20603564 6.87938938 7.3984375 10.76953125 C8.35363281 12.4546582 8.35363281 12.4546582 9.328125 14.17382812 C9.66134766 14.76623291 9.99457031 15.3586377 10.33789062 15.96899414 C12.11997861 19.13673104 13.91650744 22.29627502 15.7109375 25.45703125 C16.25581818 26.4181633 16.25581818 26.4181633 16.81170654 27.39871216 C20.15788702 33.29515335 23.57043543 39.15169511 27 45 C32.05691445 53.63462 37.04593363 62.30614862 42 71 C48.66641232 82.69648348 55.41824799 94.34104554 62.22070312 105.95898438 C65.4447268 111.46919827 68.65915161 116.98501235 71.875 122.5 C73.05985715 124.53127256 74.24474922 126.56252476 75.4296875 128.59375 C76.28645833 130.0625 77.14322917 131.53125 78 133 C70.78680671 137.04095676 58.62602174 136.00448548 50.6875 134.0625 C31.52255478 126.97048068 19.55544252 109.07770135 11.23999023 91.36425781 C-1.29203296 63.4492911 -8.1523238 31.34490802 -1 1 C-0.67 0.67 -0.34 0.34 0 0 Z " fill="#FFC109" transform="translate(158,146)"/>
<path d="M0 0 C0.99 0.495 0.99 0.495 2 1 C10.84463483 33.12017308 0.70031075 70.61977804 -15 99 C-17.71614737 103.55297511 -20.76714792 107.79671807 -24 112 C-24.61230469 112.81984375 -25.22460938 113.6396875 -25.85546875 114.484375 C-33.38080496 123.79076094 -44.9731091 131.61110778 -57 133 C-72.27082461 133.86458769 -72.27082461 133.86458769 -76 132 C-75.31966999 128.3778181 -73.79368089 125.61646623 -71.96484375 122.43359375 C-71.32861084 121.32226074 -70.69237793 120.21092773 -70.03686523 119.06591797 C-69.33729549 117.85631882 -68.63750094 116.64684967 -67.9375 115.4375 C-67.21340815 114.17867176 -66.48953462 112.91971792 -65.76586914 111.66064453 C-60.23958289 102.06500826 -54.6054437 92.53456325 -48.93994141 83.02050781 C-44.33387144 75.27870209 -39.80152758 67.49770161 -35.3125 59.6875 C-23.78708155 39.6449216 -11.91855366 19.81040097 0 0 Z " fill="#FFC109" transform="translate(353,150)"/>
<path d="M0 0 C6.51768648 3.08870283 8.98110265 8.45175062 12.3125 14.625 C13.1178418 16.07519531 13.1178418 16.07519531 13.93945312 17.5546875 C19.93605275 28.38335163 19.93605275 28.38335163 19 36 C16.34641502 41.11762818 13.46882174 44.17705942 8 46 C2.54444627 46.54555537 -0.57946602 46.3287864 -5.10449219 42.91259766 C-9.30592064 38.67328925 -11.9083409 33.19812229 -14.75 28 C-15.41389174 26.81167595 -16.07924645 25.62416801 -16.74609375 24.4375 C-17.96928626 22.25411378 -19.18589191 20.06701412 -20.39355469 17.875 C-21.45510966 15.97517153 -22.55977295 14.09873034 -23.70800781 12.25 C-25 10 -25 10 -25 8 C-9.04929055 -2.43199684 -9.04929055 -2.43199684 0 0 Z " fill="#FFC10A" transform="translate(336,353)"/>
<path d="M0 0 C4.96079601 2.1310553 9.49278701 5.05221691 14 8 C11.67645526 14.17169555 8.34508617 19.76155723 5.125 25.5 C4.49980469 26.62792969 3.87460938 27.75585938 3.23046875 28.91796875 C2.62074219 30.00722656 2.01101562 31.09648437 1.3828125 32.21875 C0.82996582 33.20810547 0.27711914 34.19746094 -0.29248047 35.21679688 C-3.48379998 40.4185473 -6.15969789 43.86604346 -12 46 C-16.38614557 46.71932787 -19.24603395 46.37698302 -23.25 44.375 C-27.49701583 40.70712269 -29.82055966 38.0012876 -30.33203125 32.296875 C-30.22780654 27.56116473 -28.54771464 24.10038039 -26.3125 20 C-25.94527832 19.30229492 -25.57805664 18.60458984 -25.19970703 17.88574219 C-24.15159679 15.91310004 -23.07990135 13.95536821 -22 12 C-21.52691406 11.11828125 -21.05382812 10.2365625 -20.56640625 9.328125 C-15.83204217 1.07015225 -9.41677017 -1.99714485 0 0 Z " fill="#FFC10A" transform="translate(187,353)"/>
</svg>
