<?xml version="1.0" encoding="UTF-8"?>
<svg version="1.1" xmlns="http://www.w3.org/2000/svg" width="512" height="512">
<path d="M0 0 C0.60376465 0.43538086 1.2075293 0.87076172 1.82958984 1.31933594 C21.84174359 15.82205069 41.04258703 32.19291389 56 52 C56.50563477 52.65097656 57.01126953 53.30195312 57.53222656 53.97265625 C98.59710501 106.89546213 117.75387851 175.06439377 109.74609375 241.71875 C106.16208072 268.17912109 99.28483114 293.76262869 88 318 C87.68063477 318.68707031 87.36126953 319.37414062 87.03222656 320.08203125 C79.31711137 336.46783935 70.05785184 351.6654274 59 366 C57.96746094 367.35351562 57.96746094 367.35351562 56.9140625 368.734375 C51.64473107 375.48772222 45.90525314 381.80272885 40 388 C39.14245117 388.90057129 39.14245117 388.90057129 38.26757812 389.81933594 C30.26610834 398.16101891 22.0485076 405.80470738 12.75927734 412.68945312 C10.97587587 414.01797091 9.21590484 415.37360037 7.45703125 416.734375 C-28.48751107 444.22966629 -72.33760986 459.75425275 -117 465 C-118.08667969 465.13277344 -119.17335938 465.26554687 -120.29296875 465.40234375 C-185.40414052 471.81680467 -252.83722656 451.43778219 -303.5625 410.3125 C-317.92061271 398.43312615 -331.48913791 385.69043588 -343 371 C-343.77859375 370.03835938 -344.5571875 369.07671875 -345.359375 368.0859375 C-386.59852404 316.20866403 -404.82753507 248.04184932 -397.69140625 182.44140625 C-391.46250706 130.91142205 -370.67091091 81.82926004 -336 43 C-335.25492187 42.14535156 -334.50984375 41.29070312 -333.7421875 40.41015625 C-324.58880372 30.02647895 -314.91733426 20.52490872 -304 12 C-303.03964844 11.22269531 -302.07929688 10.44539063 -301.08984375 9.64453125 C-219.27712754 -55.41260971 -106.59144195 -59.39978104 0 0 Z " fill="#E7AF30" transform="translate(399,45)"/>
<path d="M0 0 C0.60376465 0.43538086 1.2075293 0.87076172 1.82958984 1.31933594 C21.84174359 15.82205069 41.04258703 32.19291389 56 52 C56.50563477 52.65097656 57.01126953 53.30195312 57.53222656 53.97265625 C98.59710501 106.89546213 117.75387851 175.06439377 109.74609375 241.71875 C106.16208072 268.17912109 99.28483114 293.76262869 88 318 C87.68063477 318.68707031 87.36126953 319.37414062 87.03222656 320.08203125 C79.31711137 336.46783935 70.05785184 351.6654274 59 366 C57.96746094 367.35351562 57.96746094 367.35351562 56.9140625 368.734375 C51.64473107 375.48772222 45.90525314 381.80272885 40 388 C39.14245117 388.90057129 39.14245117 388.90057129 38.26757812 389.81933594 C30.26610834 398.16101891 22.0485076 405.80470738 12.75927734 412.68945312 C10.97587587 414.01797091 9.21590484 415.37360037 7.45703125 416.734375 C-28.48751107 444.22966629 -72.33760986 459.75425275 -117 465 C-118.08667969 465.13277344 -119.17335938 465.26554687 -120.29296875 465.40234375 C-185.40414052 471.81680467 -252.83722656 451.43778219 -303.5625 410.3125 C-317.92061271 398.43312615 -331.48913791 385.69043588 -343 371 C-343.77859375 370.03835938 -344.5571875 369.07671875 -345.359375 368.0859375 C-386.59852404 316.20866403 -404.82753507 248.04184932 -397.69140625 182.44140625 C-391.46250706 130.91142205 -370.67091091 81.82926004 -336 43 C-335.25492187 42.14535156 -334.50984375 41.29070312 -333.7421875 40.41015625 C-324.58880372 30.02647895 -314.91733426 20.52490872 -304 12 C-303.03964844 11.22269531 -302.07929688 10.44539063 -301.08984375 9.64453125 C-219.27712754 -55.41260971 -106.59144195 -59.39978104 0 0 Z M-250 8 C-250.64598145 8.34111816 -251.29196289 8.68223633 -251.95751953 9.03369141 C-272.01260183 19.63134381 -289.53447804 33.48571865 -306 49 C-306.78246094 49.72832031 -307.56492187 50.45664063 -308.37109375 51.20703125 C-314.98381747 57.56043247 -320.51320751 64.67905676 -326 72 C-326.65234619 72.86915039 -326.65234619 72.86915039 -327.31787109 73.75585938 C-363.38129639 122.16864874 -379.74084832 182.84659928 -371.02734375 242.765625 C-361.85210491 300.27227559 -333.25473954 353.83136338 -287 390 C-286.05125 390.77730469 -285.1025 391.55460937 -284.125 392.35546875 C-239.46249554 428.18801378 -178.95545638 445.26720845 -122.1953125 439.23828125 C-109.27180783 437.69767816 -96.4488989 435.87209258 -84 432 C-83.05189453 431.71560059 -82.10378906 431.43120117 -81.12695312 431.13818359 C-35.3600287 417.2839973 6.71140992 391.37636183 36 353 C36.63518555 352.17943115 36.63518555 352.17943115 37.28320312 351.34228516 C74.82603762 302.65814187 91.23601705 240.73055308 83.4375 179.8125 C76.49426909 130.77276417 54.17433348 86.58731073 20 51 C19.51273437 50.48550293 19.02546875 49.97100586 18.5234375 49.44091797 C10.93985064 41.45432633 2.81947284 34.58202642 -6 28 C-6.54317871 27.58540527 -7.08635742 27.17081055 -7.64599609 26.74365234 C-76.33596718 -25.63011528 -174.13958046 -33.13901384 -250 8 Z " fill="#000000" transform="translate(399,45)"/>
<path d="M0 0 C5.36038947 3.04828131 9.43330602 7.16181891 13.74951172 11.52246094 C14.50141281 12.27406998 15.2533139 13.02567902 16.02799988 13.80006409 C18.50000221 16.27345431 20.96485411 18.75384232 23.4296875 21.234375 C25.14703391 22.95545345 26.86482384 24.67608945 28.58303833 26.39630127 C33.09521865 30.91610294 37.60135939 35.44187944 42.10626221 39.96893311 C46.70782884 44.59099037 51.31509104 49.20736258 55.921875 53.82421875 C64.95349474 62.87726198 73.97893818 71.93643672 83 81 C88.0599809 76.76497203 92.79227683 72.33752055 97.43237305 67.64941406 C98.49228455 66.58490273 98.49228455 66.58490273 99.5736084 65.49888611 C101.09588534 63.96949664 102.61703267 62.43898212 104.13715172 60.90744781 C106.5430111 58.48410525 108.95247805 56.06440375 111.36299133 53.64569092 C118.21185743 46.77244339 125.05499839 39.89351633 131.89379883 33.01025391 C136.08622454 28.79107614 140.28348356 24.57675725 144.48377419 20.36540985 C146.08167332 18.76129965 147.67767204 17.15529407 149.27173424 15.54737091 C151.49523614 13.30469298 153.72479317 11.06820583 155.95581055 8.83300781 C156.61303604 8.16702072 157.27026154 7.50103363 157.94740295 6.81486511 C158.55701874 6.2065535 159.16663452 5.59824188 159.79472351 4.97149658 C160.32027171 4.44280598 160.84581991 3.91411537 161.38729382 3.36940384 C163.8204012 1.30336935 165.97517993 0.05499929 169.18359375 -0.1171875 C174.21611107 0.42356826 177.43420821 1.11004532 181 5 C182.93914586 8.32425004 183.75405789 11.9428428 183.60655212 15.80935669 C180.77926338 26.02048437 164.95284718 37.17054752 157.58984375 44.5078125 C156.0106498 46.0851379 154.43167907 47.6626868 152.85292053 49.240448 C148.72720352 53.36237423 144.59849073 57.48128667 140.46911621 61.59954834 C136.24384984 65.81452607 132.02146588 70.03238917 127.79882812 74.25 C119.5353479 82.50280367 111.2686954 90.75242178 103 99 C104.35154842 101.7975653 105.63844227 103.90088404 107.80981445 106.13208008 C108.65628288 107.00737114 108.65628288 107.00737114 109.51985168 107.90034485 C110.12818344 108.51717636 110.7365152 109.13400787 111.36328125 109.76953125 C111.99227829 110.40992844 112.62127533 111.05032562 113.26933289 111.71012878 C114.59884119 113.05849405 115.93125401 114.40400075 117.26635742 115.74682617 C119.30885419 117.80881939 121.32905725 119.89113773 123.34960938 121.97460938 C124.64450932 123.28256212 125.94069093 124.58924752 127.23828125 125.89453125 C127.84054031 126.52148392 128.44279938 127.14843658 129.06330872 127.79438782 C130.65225309 129.36671024 132.1284518 130.77766888 134 132 C136.74163699 132.09222053 136.74163699 132.09222053 139 131 C139.83660156 130.7628125 140.67320312 130.525625 141.53515625 130.28125 C142.36917969 130.0234375 143.20320312 129.765625 144.0625 129.5 C145.70632275 128.99342905 147.35206822 128.49303975 149 128 C149.63550781 127.80792969 150.27101563 127.61585938 150.92578125 127.41796875 C163.77405549 124.8289568 177.96672526 128.04105845 188.98046875 134.83984375 C201.57469598 143.6669764 210.02323067 155.76247781 213 171 C214.31631556 187.16262877 210.23964909 201.87473891 199.96875 214.49609375 C190.34582918 224.8337605 177.67833936 230.90606069 163.64453125 232.34375 C148.23451501 232.78561426 134.50030045 227.50027887 123.1875 217 C111.9298925 205.0511359 107.25360665 191.35789293 107.67578125 175.08984375 C108.06173559 168.18337819 109.91413308 161.20791947 113.69921875 155.38671875 C115.21185233 153.16232527 115.21185233 153.16232527 114.76051331 151.05133057 C113.89031648 148.70415094 112.90822341 147.54535868 111.13256836 145.79199219 C110.53202133 145.19167175 109.9314743 144.59135132 109.31272888 143.97283936 C108.66167679 143.33727112 108.01062469 142.70170288 107.33984375 142.046875 C106.67537735 141.38665344 106.01091095 140.72643188 105.3263092 140.04620361 C103.20364437 137.9403236 101.07078395 135.84511672 98.9375 133.75 C97.49606066 132.32360768 96.05529691 130.8965323 94.61523438 129.46875 C91.08461168 125.97119406 87.54480947 122.48317435 84 119 C79.65913471 122.64232898 75.50230266 126.37638194 71.50390625 130.3984375 C71.02549789 130.8782608 70.54708954 131.35808411 70.05418396 131.85244751 C68.55455121 133.35759458 67.05846872 134.86621214 65.5625 136.375 C64.53474017 137.40778595 63.50674715 138.44033991 62.47851562 139.47265625 C59.98298402 141.97910287 57.49061918 144.4886708 55 147 C56.76080227 151.44946915 58.73684119 155.76026763 60.78125 160.0859375 C65.71909239 171.89244528 65.55353542 185.03229246 61.24609375 197.015625 C54.60181705 212.92856356 44.75530871 222.52445743 29 229 C28.14664063 229.35964844 27.29328125 229.71929687 26.4140625 230.08984375 C14.80414354 234.27481454 2.16529054 232.71144594 -9 228 C-24.00229799 220.84191962 -33.1096568 210.25653388 -38.875 194.8125 C-43.24768247 181.41545314 -41.40814897 168.73619083 -36 156 C-33.9381048 152.40088828 -31.63839815 149.19322909 -29 146 C-28.39929688 145.18144531 -27.79859375 144.36289062 -27.1796875 143.51953125 C-24.66041117 140.60746453 -21.85595194 138.5093811 -18.6875 136.375 C-17.87249023 135.80265625 -17.87249023 135.80265625 -17.04101562 135.21875 C-5.59448802 127.38051386 7.03863819 125.25276648 20.65234375 127.640625 C28.3743668 129.41260779 28.3743668 129.41260779 31.97088623 130.71214294 C34.02661782 131.22662453 34.02661782 131.22662453 35.61993408 129.9813385 C36.14399841 129.44617111 36.66806274 128.91100372 37.20800781 128.35961914 C37.80832825 127.75892105 38.40864868 127.15822296 39.02716064 126.5393219 C39.66272888 125.87794724 40.29829712 125.21657257 40.953125 124.53515625 C41.61334656 123.86785995 42.27356812 123.20056366 42.95379639 122.51304626 C45.06451906 120.37428455 47.1572266 118.2188143 49.25 116.0625 C50.67593193 114.6114978 52.10300162 113.16161275 53.53125 111.71289062 C57.03417807 108.15476663 60.52104243 104.5815584 64 101 C62.66326112 98.02655968 61.20037942 95.95618243 58.88769531 93.66737366 C58.2483606 93.02962509 57.60902588 92.39187653 56.95031738 91.73480225 C56.2499939 91.04638245 55.54967041 90.35796265 54.828125 89.64868164 C53.72059875 88.54794563 53.72059875 88.54794563 52.59069824 87.42497253 C50.98756572 85.83279559 49.38216611 84.24289884 47.77478027 82.65501595 C45.23183192 80.14220347 42.69559544 77.62279443 40.16113281 75.10142517 C32.95408893 67.93415905 25.73445165 60.77962552 18.51171875 53.62817383 C14.0940968 49.25323427 9.68378125 44.8710352 5.27770996 40.48446465 C3.59646397 38.8137952 1.91230891 37.146048 0.22521973 35.48127937 C-2.13270429 33.15450342 -4.48132195 30.81869735 -6.828125 28.48071289 C-7.52844849 27.79431732 -8.22877197 27.10792175 -8.95031738 26.40072632 C-13.33594444 22.00663667 -15.68531306 18.88463029 -16.375 12.5625 C-15.82358232 7.32403208 -13.73772282 4.40896445 -9.6875 1.125 C-6.16108808 -0.35117243 -3.79611 -0.46618895 0 0 Z " fill="#010100" transform="translate(170,140)"/>
<path d="M0 0 C6.80461467 3.19453284 11.54017155 8.97313421 15.421875 15.2734375 C17.99079262 22.98019036 17.14187948 31.74940349 13.73828125 39.0546875 C9.97494186 45.39764528 5.11356321 49.18254101 -1.83984375 51.609375 C-9.93833907 53.57334676 -17.04439503 53.03937261 -24.3203125 48.88671875 C-30.4477296 44.50847781 -35.15571749 38.77569303 -36.578125 31.2734375 C-37.41265911 23.88452876 -37.32483106 17.63132163 -33.19921875 11.2734375 C-24.61353529 0.68097984 -13.56788049 -3.82367541 0 0 Z " fill="#E6AE30" transform="translate(191.578125,293.7265625)"/>
<path d="M0 0 C6.08737322 4.0773915 11.34615848 9.64569702 13.55859375 16.7421875 C15.11804639 24.71885674 14.67636945 31.62319917 10.61328125 38.7421875 C6.22373144 44.88543154 0.50532589 49.5326958 -7 51 C-15.41751112 52.03761564 -22.03638363 50.97573281 -29 46 C-35.08941071 40.611446 -38.50050988 34.97617029 -39.3125 26.88671875 C-39.65389057 17.63716801 -37.98962062 12.01791802 -31.75 5.25 C-23.09353749 -2.69721453 -11.02263759 -5.57749243 0 0 Z " fill="#E6AE30" transform="translate(343,295)"/>
</svg>
